<?xml version="1.0" encoding="utf-8"?>
<!-- Generator: Adobe Illustrator 19.1.0, SVG Export Plug-In . SVG Version: 6.00 Build 0)  -->
<svg version="1.1" id="Слой_1" xmlns="http://www.w3.org/2000/svg" xmlns:xlink="http://www.w3.org/1999/xlink" x="0px" y="0px"
	 viewBox="0 0 141.7 160.5" style="enable-background:new 0 0 141.7 160.5;" xml:space="preserve">
<style type="text/css">
	.st0{fill:#1572B6;}
	.st1{fill:#33A9DC;}
	.st2{fill:#FFFFFF;}
	.st3{fill:#EBEBEB;}
</style>
<polygon class="st0" points="13.8,143.9 1.2,1.7 140.5,1.7 127.8,143.8 70.7,159.6 "/>
<polygon class="st1" points="70.8,147.6 116.9,134.8 127.7,13.3 70.8,13.3 "/>
<g>
	<polygon class="st2" points="70.8,64.8 93.9,64.8 95.5,47 70.8,47 70.8,29.5 70.9,29.5 114.5,29.5 114.1,34.2 109.8,82.2 
		70.8,82.2 	"/>
	<polygon class="st3" points="70.9,110.1 70.8,110.1 51.4,104.9 50.2,91 40.7,91 32.7,91 35.1,118.3 70.8,128.3 70.9,128.2 	"/>
	<polygon class="st2" points="92.4,81.5 90.3,104.9 70.9,110.1 70.9,128.3 106.6,118.3 106.9,115.4 109.9,81.5 	"/>
	<polygon class="st3" points="70.9,29.5 70.9,40.3 70.9,46.9 70.9,47 28.8,47 28.8,47 28.7,47 28.4,43 27.6,34.2 27.2,29.5 	"/>
	<polygon class="st3" points="70.8,64.8 70.8,75.6 70.8,82.2 70.8,82.2 51.7,82.2 51.7,82.2 51.6,82.2 51.3,78.3 50.5,69.5 
		50.1,64.8 	"/>
</g>
</svg>
