<?xml version="1.0" encoding="utf-8"?>
<!-- Generator: Adobe Illustrator 19.1.0, SVG Export Plug-In . SVG Version: 6.00 Build 0)  -->
<svg version="1.1" id="Слой_1" xmlns="http://www.w3.org/2000/svg" xmlns:xlink="http://www.w3.org/1999/xlink" x="0px" y="0px"
	 viewBox="0 0 141.7 160.5" style="enable-background:new 0 0 141.7 160.5;" xml:space="preserve">
<style type="text/css">
	.st0{fill:#E44F26;}
	.st1{fill:#F1662A;}
	.st2{fill:#EBEBEB;}
	.st3{fill:#FFFFFF;}
</style>
<polygon class="st0" points="14.8,143.1 2.2,2.5 139.9,2.5 127.4,143 71,158.7 "/>
<polygon class="st1" points="71.1,146.7 116.7,134.1 127.4,14 71.1,14 "/>
<polygon class="st2" points="71.1,66.1 48.3,66.1 46.7,48.5 71.1,48.5 71.1,31.2 71,31.2 27.9,31.2 28.3,35.9 32.5,83.4 71.1,83.4 
	"/>
<polygon class="st2" points="71.1,110.9 71,110.9 51.8,105.7 50.6,92 41.3,92 33.3,92 35.7,119.1 71,128.9 71.1,128.8 "/>
<polygon class="st3" points="71,66.1 71,83.4 92.3,83.4 90.3,105.7 71,110.9 71,128.8 106.4,119.1 106.6,116.1 110.7,70.8 
	111.1,66.1 106.5,66.1 "/>
<polygon class="st3" points="71,31.2 71,42 71,48.4 71,48.5 112.6,48.5 112.6,48.5 112.7,48.5 113,44.6 113.8,35.9 114.2,31.2 "/>
</svg>
